#!OML:ASF E:\id_vita\Project 1\Capture day 1\Session 1\Female.ASF
:FULLY-SPECIFIED
:DEGREES
716
root 25.8148 16.5918 1.28866 922.751 96.6108 910.684
lowerback -16.4375 1.8181 -3.53941
upperback -5.30561 3.26069 -0.697383
thorax 3.3936 1.73719 1.88624
lowerneck 6.66391 0.374877 -3.85914
upperneck 3.84611 0.296111 3.96352
head 0.0598303 0.126547 1.88923
rclavicle 7.8023e-015 -3.57812e-015
rhumerus -37.6776 -27.1833 -77.1438
rradius 18.4781
rwrist 23.8767
rhand -12.6795 8.92045
rfingers 7.12502
rthumb 13.4021 -20.6285
lclavicle 7.8023e-015 -3.57812e-015
lhumerus -51.2521 52.2532 47.3312
lradius 11.7882
lwrist -71.4736
lhand -7.64357 24.3827
lfingers 7.12502
lthumb 18.2518 53.5464
rfemur -17.123 -6.06242 18.4349
rtibia 63.1314
rfoot -1.45257 3.78153
rtoes -22.6303
lfemur -27.5017 -10.2476 -24.2512
ltibia 27.438
lfoot -14.5613 1.88994
ltoes 10.0385
717
root 25.9213 16.5972 1.29263 921.295 96.3809 909.135
lowerback -16.5305 1.72027 -3.40677
upperback -5.29026 3.11 -0.592346
thorax 3.46872 1.661 1.89924
lowerneck 5.29935 0.742616 -4.23692
upperneck 5.43065 0.776733 4.77967
head 0.762011 0.386043 2.22535
rclavicle -3.10601e-015 1.78906e-015
rhumerus -37.6452 -27.1921 -77.016
rradius 18.4526
rwrist 23.7353
rhand -12.9699 9.30255
rfingers 7.12502
rthumb 13.1222 -20.2646
lclavicle -3.10601e-015 1.78906e-015
lhumerus -49.1748 51.6412 49.7145
lradius 11.9713
lwrist -70.1347
lhand -7.90425 24.3839
lfingers 7.12502
lthumb 18.001 53.5709
rfemur -18.374 -6.10388 18.8207
rtibia 63.8292
rfoot -3.57103 2.31199
rtoes -27.5087
lfemur -27.402 -10.2712 -24.0852
ltibia 27.6253
lfoot -14.7227 1.75418
ltoes 11.7206
718
root 26.0315 16.5957 1.29074 923.572 96.3687 911.304
lowerback -16.7244 1.60446 -3.63224
upperback -5.26418 3.00587 -0.618456
thorax 3.59438 1.60738 1.98872
lowerneck 6.00579 0.431211 -3.77176
upperneck 4.65305 0.388783 3.98907
head 0.419124 0.184791 1.88108
rclavicle -1.22501e-014 -1.13307e-014
rhumerus -37.487 -26.4995 -77.314
rradius 18.6862
rwrist 22.6449
rhand -12.99 9.13166
rfingers 7.12502
rthumb 13.1029 -20.4367
lclavicle -1.22501e-014 -1.13307e-014
lhumerus -47.6233 51.4142 51.4239
lradius 12.0293
lwrist -69.1535
lhand -8.4284 24.1806
lfingers 7.12502
lthumb 17.4966 53.4132
rfemur -19.7717 -6.10351 18.6309
rtibia 64.4586
rfoot -3.86043 1.19803
rtoes -25.3248
lfemur -27.1341 -10.4111 -24.4129
ltibia 27.8868
lfoot -14.8368 1.9707
ltoes 12.2724
719
root 26.1463 16.6015 1.29084 920.673 96.2739 908.692
lowerback -16.3897 1.63187 -3.34487
upperback -5.18005 2.96647 -0.471665
thorax 3.51482 1.58448 1.96161
lowerneck 5.21638 0.799724 -4.27701
upperneck 5.62804 0.851157 4.81688
head 0.834739 0.42544 2.24595
rclavicle 1.98909e-014 2.38542e-015
rhumerus -37.4345 -25.5099 -77.7038
rradius 19.159
rwrist 21.1227
rhand -12.9866 8.83753
rfingers 7.12502
rthumb 13.1061 -20.7306
lclavicle 1.98909e-014 2.38542e-015
lhumerus -45.6168 50.5636 53.8229
lradius 12.1396
lwrist -67.5908
lhand -8.33486 24.5096
lfingers 7.12502
lthumb 17.5866 53.7342
rfemur -20.6207 -5.62601 19.0023
rtibia 64.9009
rfoot -4.37833 0.00718637
rtoes -23.3812
lfemur -26.3381 -10.4811 -24.2737
ltibia 28.107
lfoot -15.1432 2.29494
ltoes 10.8107
720
root 26.2611 16.6115 1.2949 921.153 96.3326 909.217
lowerback -16.3561 1.58932 -3.47944
upperback -5.15283 2.92709 -0.428499
thorax 3.51845 1.56416 2.07472
lowerneck 5.16184 0.920082 -4.47656
upperneck 5.85302 0.995383 5.11818
head 0.906622 0.499003 2.38312
rclavicle -1.96673e-014 1.07344e-014
rhumerus -37.5447 -25.2756 -77.6412
rradius 19.4081
rwrist 20.769
rhand -13.22 9.00695
rfingers 7.12502
rthumb 12.8811 -20.5755
lclavicle -1.96673e-014 1.07344e-014
lhumerus -43.3601 49.3128 56.5727
lradius 12.388
lwrist -65.621
lhand -7.96678 25.0672
lfingers 7.12502
lthumb 17.9408 54.2597
rfemur -21.7675 -4.87889 19.0838
rtibia 65.2308
rfoot -4.46057 -1.8874
rtoes -20.9588
lfemur -25.9911 -10.3666 -24.4965
ltibia 28.3109
lfoot -15.6638 2.38519
ltoes 10.4516
721
root 26.3543 16.6119 1.28716 923.338 96.3715 911.256
lowerback -16.2489 1.4814 -3.5996
upperback -5.24073 2.80365 -0.467603
thorax 3.37164 1.50945 2.07165
lowerneck 5.16789 1.05812 -4.37187
upperneck 6.01754 1.18807 4.96791
head 0.949041 0.59825 2.3132
rclavicle 2.11954e-014 -4.27387e-015
rhumerus -37.6654 -25.0787 -77.5582
rradius 19.68
rwrist 20.7311
rhand -13.2856 9.22316
rfingers 7.12502
rthumb 12.8179 -20.3633
lclavicle 2.11954e-014 -4.27387e-015
lhumerus -41.5604 48.3735 58.7196
lradius 12.6106
lwrist -63.9646
lhand -7.93595 25.3242
lfingers 7.12502
lthumb 17.9705 54.514
rfemur -23.2563 -4.80515 18.8402
rtibia 65.5003
rfoot -4.11041 -2.91486
rtoes -16.6831
lfemur -25.8722 -10.2975 -24.927
ltibia 28.5096
lfoot -16.3043 2.49266
ltoes 11.5121
722
root 26.4551 16.609 1.28754 918.936 96.2197 907.078
lowerback -15.8937 1.46502 -3.12983
upperback -5.15821 2.67608 -0.247347
thorax 3.28863 1.4424 2.00303
lowerneck 4.57482 0.895316 -4.36413
upperneck 6.56532 0.988792 4.74892
head 1.23555 0.505574 2.2512
rclavicle -4.01421e-014 -2.38542e-015
rhumerus -37.5713 -24.6774 -77.5944
rradius 19.9005
rwrist 20.2767
rhand -13.1833 9.15117
rfingers 7.12502
rthumb 12.9165 -20.4291
lclavicle -4.01421e-014 -2.38542e-015
lhumerus -40.0379 47.701 60.5391
lradius 12.7503
lwrist -62.5878
lhand -8.10665 25.299
lfingers 7.12502
lthumb 17.8062 54.5038
rfemur -24.172 -4.64979 19.4418
rtibia 65.5407
rfoot -6.04651 -4.6594
rtoes -23.3984
lfemur -25.2524 -10.196 -24.5525
ltibia 28.6684
lfoot -16.8279 2.63576
ltoes 12.1473
